<?xml version='1.0' encoding='UTF-8'?>
<svg width="93mm" height="93mm" version="1.1" viewBox="0 0 93 93" xmlns="http://www.w3.org/2000/svg"><path d="M4,4H5V5H4zM5,4H6V5H5zM6,4H7V5H6zM7,4H8V5H7zM8,4H9V5H8zM9,4H10V5H9zM10,4H11V5H10zM13,4H14V5H13zM15,4H16V5H15zM16,4H17V5H16zM17,4H18V5H17zM18,4H19V5H18zM23,4H24V5H23zM24,4H25V5H24zM27,4H28V5H27zM28,4H29V5H28zM29,4H30V5H29zM30,4H31V5H30zM36,4H37V5H36zM38,4H39V5H38zM43,4H44V5H43zM45,4H46V5H45zM46,4H47V5H46zM48,4H49V5H48zM51,4H52V5H51zM56,4H57V5H56zM57,4H58V5H57zM58,4H59V5H58zM61,4H62V5H61zM63,4H64V5H63zM71,4H72V5H71zM73,4H74V5H73zM74,4H75V5H74zM75,4H76V5H75zM76,4H77V5H76zM78,4H79V5H78zM80,4H81V5H80zM82,4H83V5H82zM83,4H84V5H83zM84,4H85V5H84zM85,4H86V5H85zM86,4H87V5H86zM87,4H88V5H87zM88,4H89V5H88zM4,5H5V6H4zM10,5H11V6H10zM21,5H22V6H21zM22,5H23V6H22zM24,5H25V6H24zM25,5H26V6H25zM26,5H27V6H26zM28,5H29V6H28zM29,5H30V6H29zM30,5H31V6H30zM34,5H35V6H34zM36,5H37V6H36zM38,5H39V6H38zM39,5H40V6H39zM40,5H41V6H40zM42,5H43V6H42zM44,5H45V6H44zM47,5H48V6H47zM49,5H50V6H49zM50,5H51V6H50zM52,5H53V6H52zM53,5H54V6H53zM55,5H56V6H55zM59,5H60V6H59zM60,5H61V6H60zM62,5H63V6H62zM63,5H64V6H63zM64,5H65V6H64zM65,5H66V6H65zM66,5H67V6H66zM68,5H69V6H68zM69,5H70V6H69zM73,5H74V6H73zM74,5H75V6H74zM77,5H78V6H77zM78,5H79V6H78zM79,5H80V6H79zM82,5H83V6H82zM88,5H89V6H88zM4,6H5V7H4zM6,6H7V7H6zM7,6H8V7H7zM8,6H9V7H8zM10,6H11V7H10zM12,6H13V7H12zM16,6H17V7H16zM17,6H18V7H17zM18,6H19V7H18zM19,6H20V7H19zM20,6H21V7H20zM23,6H24V7H23zM24,6H25V7H24zM25,6H26V7H25zM28,6H29V7H28zM33,6H34V7H33zM35,6H36V7H35zM38,6H39V7H38zM39,6H40V7H39zM40,6H41V7H40zM42,6H43V7H42zM47,6H48V7H47zM49,6H50V7H49zM53,6H54V7H53zM55,6H56V7H55zM56,6H57V7H56zM57,6H58V7H57zM61,6H62V7H61zM63,6H64V7H63zM64,6H65V7H64zM71,6H72V7H71zM72,6H73V7H72zM73,6H74V7H73zM74,6H75V7H74zM75,6H76V7H75zM77,6H78V7H77zM78,6H79V7H78zM82,6H83V7H82zM84,6H85V7H84zM85,6H86V7H85zM86,6H87V7H86zM88,6H89V7H88zM4,7H5V8H4zM6,7H7V8H6zM7,7H8V8H7zM8,7H9V8H8zM10,7H11V8H10zM12,7H13V8H12zM13,7H14V8H13zM17,7H18V8H17zM19,7H20V8H19zM20,7H21V8H20zM21,7H22V8H21zM25,7H26V8H25zM26,7H27V8H26zM27,7H28V8H27zM28,7H29V8H28zM29,7H30V8H29zM30,7H31V8H30zM32,7H33V8H32zM35,7H36V8H35zM36,7H37V8H36zM37,7H38V8H37zM38,7H39V8H38zM40,7H41V8H40zM44,7H45V8H44zM47,7H48V8H47zM50,7H51V8H50zM51,7H52V8H51zM52,7H53V8H52zM54,7H55V8H54zM55,7H56V8H55zM58,7H59V8H58zM59,7H60V8H59zM60,7H61V8H60zM62,7H63V8H62zM64,7H65V8H64zM65,7H66V8H65zM67,7H68V8H67zM68,7H69V8H68zM69,7H70V8H69zM70,7H71V8H70zM74,7H75V8H74zM79,7H80V8H79zM82,7H83V8H82zM84,7H85V8H84zM85,7H86V8H85zM86,7H87V8H86zM88,7H89V8H88zM4,8H5V9H4zM6,8H7V9H6zM7,8H8V9H7zM8,8H9V9H8zM10,8H11V9H10zM12,8H13V9H12zM14,8H15V9H14zM18,8H19V9H18zM20,8H21V9H20zM21,8H22V9H21zM22,8H23V9H22zM23,8H24V9H23zM28,8H29V9H28zM29,8H30V9H29zM31,8H32V9H31zM32,8H33V9H32zM33,8H34V9H33zM34,8H35V9H34zM35,8H36V9H35zM36,8H37V9H36zM38,8H39V9H38zM42,8H43V9H42zM44,8H45V9H44zM46,8H47V9H46zM47,8H48V9H47zM52,8H53V9H52zM56,8H57V9H56zM57,8H58V9H57zM58,8H59V9H58zM59,8H60V9H59zM60,8H61V9H60zM61,8H62V9H61zM63,8H64V9H63zM67,8H68V9H67zM71,8H72V9H71zM73,8H74V9H73zM75,8H76V9H75zM76,8H77V9H76zM78,8H79V9H78zM82,8H83V9H82zM84,8H85V9H84zM85,8H86V9H85zM86,8H87V9H86zM88,8H89V9H88zM4,9H5V10H4zM10,9H11V10H10zM12,9H13V10H12zM13,9H14V10H13zM14,9H15V10H14zM15,9H16V10H15zM17,9H18V10H17zM18,9H19V10H18zM20,9H21V10H20zM21,9H22V10H21zM22,9H23V10H22zM23,9H24V10H23zM26,9H27V10H26zM27,9H28V10H27zM28,9H29V10H28zM30,9H31V10H30zM32,9H33V10H32zM36,9H37V10H36zM37,9H38V10H37zM39,9H40V10H39zM40,9H41V10H40zM41,9H42V10H41zM42,9H43V10H42zM43,9H44V10H43zM47,9H48V10H47zM49,9H50V10H49zM50,9H51V10H50zM51,9H52V10H51zM54,9H55V10H54zM56,9H57V10H56zM60,9H61V10H60zM64,9H65V10H64zM65,9H66V10H65zM66,9H67V10H66zM67,9H68V10H67zM71,9H72V10H71zM73,9H74V10H73zM74,9H75V10H74zM77,9H78V10H77zM79,9H80V10H79zM82,9H83V10H82zM88,9H89V10H88zM4,10H5V11H4zM5,10H6V11H5zM6,10H7V11H6zM7,10H8V11H7zM8,10H9V11H8zM9,10H10V11H9zM10,10H11V11H10zM12,10H13V11H12zM14,10H15V11H14zM16,10H17V11H16zM18,10H19V11H18zM20,10H21V11H20zM22,10H23V11H22zM24,10H25V11H24zM26,10H27V11H26zM28,10H29V11H28zM30,10H31V11H30zM32,10H33V11H32zM34,10H35V11H34zM36,10H37V11H36zM38,10H39V11H38zM40,10H41V11H40zM42,10H43V11H42zM44,10H45V11H44zM46,10H47V11H46zM48,10H49V11H48zM50,10H51V11H50zM52,10H53V11H52zM54,10H55V11H54zM56,10H57V11H56zM58,10H59V11H58zM60,10H61V11H60zM62,10H63V11H62zM64,10H65V11H64zM66,10H67V11H66zM68,10H69V11H68zM70,10H71V11H70zM72,10H73V11H72zM74,10H75V11H74zM76,10H77V11H76zM78,10H79V11H78zM80,10H81V11H80zM82,10H83V11H82zM83,10H84V11H83zM84,10H85V11H84zM85,10H86V11H85zM86,10H87V11H86zM87,10H88V11H87zM88,10H89V11H88zM12,11H13V12H12zM14,11H15V12H14zM15,11H16V12H15zM22,11H23V12H22zM23,11H24V12H23zM24,11H25V12H24zM25,11H26V12H25zM26,11H27V12H26zM28,11H29V12H28zM29,11H30V12H29zM31,11H32V12H31zM32,11H33V12H32zM36,11H37V12H36zM38,11H39V12H38zM41,11H42V12H41zM46,11H47V12H46zM48,11H49V12H48zM53,11H54V12H53zM55,11H56V12H55zM56,11H57V12H56zM60,11H61V12H60zM62,11H63V12H62zM64,11H65V12H64zM68,11H69V12H68zM71,11H72V12H71zM72,11H73V12H72zM73,11H74V12H73zM74,11H75V12H74zM75,11H76V12H75zM76,11H77V12H76zM78,11H79V12H78zM79,11H80V12H79zM80,11H81V12H80zM4,12H5V13H4zM6,12H7V13H6zM7,12H8V13H7zM8,12H9V13H8zM9,12H10V13H9zM10,12H11V13H10zM13,12H14V13H13zM16,12H17V13H16zM17,12H18V13H17zM18,12H19V13H18zM19,12H20V13H19zM21,12H22V13H21zM23,12H24V13H23zM24,12H25V13H24zM26,12H27V13H26zM31,12H32V13H31zM32,12H33V13H32zM33,12H34V13H33zM34,12H35V13H34zM35,12H36V13H35zM36,12H37V13H36zM39,12H40V13H39zM40,12H41V13H40zM42,12H43V13H42zM43,12H44V13H43zM45,12H46V13H45zM47,12H48V13H47zM49,12H50V13H49zM50,12H51V13H50zM51,12H52V13H51zM52,12H53V13H52zM54,12H55V13H54zM55,12H56V13H55zM56,12H57V13H56zM57,12H58V13H57zM58,12H59V13H58zM59,12H60V13H59zM60,12H61V13H60zM61,12H62V13H61zM62,12H63V13H62zM63,12H64V13H63zM65,12H66V13H65zM67,12H68V13H67zM69,12H70V13H69zM70,12H71V13H70zM74,12H75V13H74zM78,12H79V13H78zM79,12H80V13H79zM82,12H83V13H82zM83,12H84V13H83zM84,12H85V13H84zM85,12H86V13H85zM86,12H87V13H86zM5,13H6V14H5zM6,13H7V14H6zM9,13H10V14H9zM12,13H13V14H12zM13,13H14V14H13zM14,13H15V14H14zM16,13H17V14H16zM22,13H23V14H22zM23,13H24V14H23zM24,13H25V14H24zM27,13H28V14H27zM28,13H29V14H28zM30,13H31V14H30zM31,13H32V14H31zM32,13H33V14H32zM36,13H37V14H36zM37,13H38V14H37zM39,13H40V14H39zM41,13H42V14H41zM44,13H45V14H44zM45,13H46V14H45zM46,13H47V14H46zM53,13H54V14H53zM55,13H56V14H55zM56,13H57V14H56zM61,13H62V14H61zM63,13H64V14H63zM64,13H65V14H64zM66,13H67V14H66zM68,13H69V14H68zM72,13H73V14H72zM73,13H74V14H73zM75,13H76V14H75zM76,13H77V14H76zM77,13H78V14H77zM78,13H79V14H78zM80,13H81V14H80zM81,13H82V14H81zM85,13H86V14H85zM10,14H11V15H10zM11,14H12V15H11zM13,14H14V15H13zM15,14H16V15H15zM16,14H17V15H16zM21,14H22V15H21zM27,14H28V15H27zM28,14H29V15H28zM29,14H30V15H29zM32,14H33V15H32zM36,14H37V15H36zM38,14H39V15H38zM40,14H41V15H40zM42,14H43V15H42zM43,14H44V15H43zM48,14H49V15H48zM49,14H50V15H49zM52,14H53V15H52zM58,14H59V15H58zM60,14H61V15H60zM62,14H63V15H62zM64,14H65V15H64zM65,14H66V15H65zM66,14H67V15H66zM68,14H69V15H68zM69,14H70V15H69zM70,14H71V15H70zM71,14H72V15H71zM72,14H73V15H72zM76,14H77V15H76zM82,14H83V15H82zM86,14H87V15H86zM87,14H88V15H87zM88,14H89V15H88zM4,15H5V16H4zM5,15H6V16H5zM6,15H7V16H6zM7,15H8V16H7zM8,15H9V16H8zM12,15H13V16H12zM14,15H15V16H14zM15,15H16V16H15zM17,15H18V16H17zM18,15H19V16H18zM19,15H20V16H19zM20,15H21V16H20zM22,15H23V16H22zM23,15H24V16H23zM25,15H26V16H25zM28,15H29V16H28zM29,15H30V16H29zM33,15H34V16H33zM37,15H38V16H37zM38,15H39V16H38zM39,15H40V16H39zM40,15H41V16H40zM46,15H47V16H46zM49,15H50V16H49zM51,15H52V16H51zM52,15H53V16H52zM56,15H57V16H56zM57,15H58V16H57zM58,15H59V16H58zM61,15H62V16H61zM70,15H71V16H70zM71,15H72V16H71zM73,15H74V16H73zM74,15H75V16H74zM75,15H76V16H75zM77,15H78V16H77zM79,15H80V16H79zM80,15H81V16H80zM81,15H82V16H81zM84,15H85V16H84zM4,16H5V17H4zM6,16H7V17H6zM9,16H10V17H9zM10,16H11V17H10zM19,16H20V17H19zM20,16H21V17H20zM21,16H22V17H21zM23,16H24V17H23zM24,16H25V17H24zM26,16H27V17H26zM27,16H28V17H27zM28,16H29V17H28zM30,16H31V17H30zM31,16H32V17H31zM32,16H33V17H32zM33,16H34V17H33zM34,16H35V17H34zM37,16H38V17H37zM40,16H41V17H40zM41,16H42V17H41zM43,16H44V17H43zM45,16H46V17H45zM50,16H51V17H50zM52,16H53V17H52zM53,16H54V17H53zM54,16H55V17H54zM55,16H56V17H55zM59,16H60V17H59zM60,16H61V17H60zM62,16H63V17H62zM64,16H65V17H64zM65,16H66V17H65zM67,16H68V17H67zM68,16H69V17H68zM69,16H70V17H69zM70,16H71V17H70zM76,16H77V17H76zM77,16H78V17H77zM79,16H80V17H79zM81,16H82V17H81zM82,16H83V17H82zM83,16H84V17H83zM84,16H85V17H84zM85,16H86V17H85zM87,16H88V17H87zM88,16H89V17H88zM6,17H7V18H6zM7,17H8V18H7zM8,17H9V18H8zM9,17H10V18H9zM11,17H12V18H11zM17,17H18V18H17zM19,17H20V18H19zM20,17H21V18H20zM22,17H23V18H22zM24,17H25V18H24zM25,17H26V18H25zM27,17H28V18H27zM28,17H29V18H28zM29,17H30V18H29zM31,17H32V18H31zM34,17H35V18H34zM36,17H37V18H36zM38,17H39V18H38zM44,17H45V18H44zM45,17H46V18H45zM46,17H47V18H46zM47,17H48V18H47zM49,17H50V18H49zM50,17H51V18H50zM55,17H56V18H55zM56,17H57V18H56zM58,17H59V18H58zM61,17H62V18H61zM63,17H64V18H63zM66,17H67V18H66zM68,17H69V18H68zM69,17H70V18H69zM71,17H72V18H71zM72,17H73V18H72zM73,17H74V18H73zM74,17H75V18H74zM75,17H76V18H75zM79,17H80V18H79zM80,17H81V18H80zM82,17H83V18H82zM87,17H88V18H87zM4,18H5V19H4zM5,18H6V19H5zM7,18H8V19H7zM8,18H9V19H8zM9,18H10V19H9zM10,18H11V19H10zM15,18H16V19H15zM16,18H17V19H16zM18,18H19V19H18zM19,18H20V19H19zM20,18H21V19H20zM21,18H22V19H21zM23,18H24V19H23zM25,18H26V19H25zM26,18H27V19H26zM27,18H28V19H27zM28,18H29V19H28zM30,18H31V19H30zM32,18H33V19H32zM34,18H35V19H34zM37,18H38V19H37zM39,18H40V19H39zM40,18H41V19H40zM41,18H42V19H41zM43,18H44V19H43zM47,18H48V19H47zM59,18H60V19H59zM60,18H61V19H60zM62,18H63V19H62zM65,18H66V19H65zM67,18H68V19H67zM68,18H69V19H68zM70,18H71V19H70zM72,18H73V19H72zM73,18H74V19H73zM74,18H75V19H74zM76,18H77V19H76zM77,18H78V19H77zM83,18H84V19H83zM84,18H85V19H84zM85,18H86V19H85zM86,18H87V19H86zM88,18H89V19H88zM5,19H6V20H5zM6,19H7V20H6zM8,19H9V20H8zM11,19H12V20H11zM13,19H14V20H13zM15,19H16V20H15zM17,19H18V20H17zM18,19H19V20H18zM19,19H20V20H19zM21,19H22V20H21zM23,19H24V20H23zM24,19H25V20H24zM27,19H28V20H27zM30,19H31V20H30zM31,19H32V20H31zM33,19H34V20H33zM34,19H35V20H34zM38,19H39V20H38zM39,19H40V20H39zM40,19H41V20H40zM44,19H45V20H44zM46,19H47V20H46zM49,19H50V20H49zM55,19H56V20H55zM57,19H58V20H57zM58,19H59V20H58zM61,19H62V20H61zM64,19H65V20H64zM68,19H69V20H68zM71,19H72V20H71zM72,19H73V20H72zM73,19H74V20H73zM75,19H76V20H75zM79,19H80V20H79zM83,19H84V20H83zM87,19H88V20H87zM4,20H5V21H4zM5,20H6V21H5zM9,20H10V21H9zM10,20H11V21H10zM11,20H12V21H11zM12,20H13V21H12zM14,20H15V21H14zM19,20H20V21H19zM20,20H21V21H20zM21,20H22V21H21zM22,20H23V21H22zM26,20H27V21H26zM29,20H30V21H29zM32,20H33V21H32zM34,20H35V21H34zM37,20H38V21H37zM40,20H41V21H40zM41,20H42V21H41zM42,20H43V21H42zM43,20H44V21H43zM45,20H46V21H45zM47,20H48V21H47zM50,20H51V21H50zM51,20H52V21H51zM52,20H53V21H52zM53,20H54V21H53zM54,20H55V21H54zM59,20H60V21H59zM60,20H61V21H60zM64,20H65V21H64zM65,20H66V21H65zM67,20H68V21H67zM68,20H69V21H68zM69,20H70V21H69zM70,20H71V21H70zM72,20H73V21H72zM74,20H75V21H74zM76,20H77V21H76zM79,20H80V21H79zM80,20H81V21H80zM81,20H82V21H81zM82,20H83V21H82zM83,20H84V21H83zM84,20H85V21H84zM85,20H86V21H85zM88,20H89V21H88zM5,21H6V22H5zM9,21H10V22H9zM11,21H12V22H11zM16,21H17V22H16zM18,21H19V22H18zM20,21H21V22H20zM21,21H22V22H21zM22,21H23V22H22zM25,21H26V22H25zM29,21H30V22H29zM31,21H32V22H31zM33,21H34V22H33zM36,21H37V22H36zM39,21H40V22H39zM41,21H42V22H41zM43,21H44V22H43zM44,21H45V22H44zM45,21H46V22H45zM46,21H47V22H46zM48,21H49V22H48zM49,21H50V22H49zM51,21H52V22H51zM54,21H55V22H54zM55,21H56V22H55zM56,21H57V22H56zM58,21H59V22H58zM61,21H62V22H61zM62,21H63V22H62zM63,21H64V22H63zM66,21H67V22H66zM73,21H74V22H73zM74,21H75V22H74zM79,21H80V22H79zM80,21H81V22H80zM82,21H83V22H82zM85,21H86V22H85zM87,21H88V22H87zM6,22H7V23H6zM8,22H9V23H8zM9,22H10V23H9zM10,22H11V23H10zM12,22H13V23H12zM14,22H15V23H14zM15,22H16V23H15zM16,22H17V23H16zM18,22H19V23H18zM19,22H20V23H19zM21,22H22V23H21zM22,22H23V23H22zM23,22H24V23H23zM28,22H29V23H28zM32,22H33V23H32zM34,22H35V23H34zM37,22H38V23H37zM38,22H39V23H38zM40,22H41V23H40zM42,22H43V23H42zM45,22H46V23H45zM46,22H47V23H46zM47,22H48V23H47zM49,22H50V23H49zM51,22H52V23H51zM59,22H60V23H59zM62,22H63V23H62zM64,22H65V23H64zM67,22H68V23H67zM68,22H69V23H68zM71,22H72V23H71zM77,22H78V23H77zM81,22H82V23H81zM82,22H83V23H82zM84,22H85V23H84zM86,22H87V23H86zM88,22H89V23H88zM7,23H8V24H7zM8,23H9V24H8zM9,23H10V24H9zM11,23H12V24H11zM13,23H14V24H13zM15,23H16V24H15zM16,23H17V24H16zM17,23H18V24H17zM18,23H19V24H18zM19,23H20V24H19zM21,23H22V24H21zM25,23H26V24H25zM29,23H30V24H29zM30,23H31V24H30zM31,23H32V24H31zM32,23H33V24H32zM35,23H36V24H35zM36,23H37V24H36zM39,23H40V24H39zM40,23H41V24H40zM43,23H44V24H43zM46,23H47V24H46zM51,23H52V24H51zM52,23H53V24H52zM53,23H54V24H53zM54,23H55V24H54zM55,23H56V24H55zM57,23H58V24H57zM61,23H62V24H61zM64,23H65V24H64zM66,23H67V24H66zM72,23H73V24H72zM74,23H75V24H74zM75,23H76V24H75zM76,23H77V24H76zM77,23H78V24H77zM78,23H79V24H78zM79,23H80V24H79zM81,23H82V24H81zM85,23H86V24H85zM87,23H88V24H87zM4,24H5V25H4zM10,24H11V25H10zM12,24H13V25H12zM14,24H15V25H14zM15,24H16V25H15zM17,24H18V25H17zM18,24H19V25H18zM20,24H21V25H20zM29,24H30V25H29zM31,24H32V25H31zM34,24H35V25H34zM35,24H36V25H35zM36,24H37V25H36zM37,24H38V25H37zM38,24H39V25H38zM40,24H41V25H40zM41,24H42V25H41zM42,24H43V25H42zM43,24H44V25H43zM45,24H46V25H45zM47,24H48V25H47zM49,24H50V25H49zM50,24H51V25H50zM54,24H55V25H54zM55,24H56V25H55zM58,24H59V25H58zM59,24H60V25H59zM60,24H61V25H60zM65,24H66V25H65zM67,24H68V25H67zM69,24H70V25H69zM70,24H71V25H70zM71,24H72V25H71zM73,24H74V25H73zM79,24H80V25H79zM80,24H81V25H80zM82,24H83V25H82zM84,24H85V25H84zM86,24H87V25H86zM88,24H89V25H88zM4,25H5V26H4zM8,25H9V26H8zM9,25H10V26H9zM11,25H12V26H11zM12,25H13V26H12zM13,25H14V26H13zM17,25H18V26H17zM18,25H19V26H18zM19,25H20V26H19zM20,25H21V26H20zM21,25H22V26H21zM23,25H24V26H23zM25,25H26V26H25zM26,25H27V26H26zM27,25H28V26H27zM30,25H31V26H30zM32,25H33V26H32zM34,25H35V26H34zM36,25H37V26H36zM39,25H40V26H39zM44,25H45V26H44zM46,25H47V26H46zM47,25H48V26H47zM48,25H49V26H48zM49,25H50V26H49zM50,25H51V26H50zM52,25H53V26H52zM53,25H54V26H53zM55,25H56V26H55zM56,25H57V26H56zM58,25H59V26H58zM61,25H62V26H61zM62,25H63V26H62zM63,25H64V26H63zM64,25H65V26H64zM65,25H66V26H65zM66,25H67V26H66zM68,25H69V26H68zM72,25H73V26H72zM73,25H74V26H73zM75,25H76V26H75zM79,25H80V26H79zM80,25H81V26H80zM83,25H84V26H83zM87,25H88V26H87zM88,25H89V26H88zM4,26H5V27H4zM7,26H8V27H7zM8,26H9V27H8zM10,26H11V27H10zM11,26H12V27H11zM13,26H14V27H13zM15,26H16V27H15zM16,26H17V27H16zM18,26H19V27H18zM20,26H21V27H20zM21,26H22V27H21zM22,26H23V27H22zM25,26H26V27H25zM26,26H27V27H26zM27,26H28V27H27zM33,26H34V27H33zM37,26H38V27H37zM40,26H41V27H40zM42,26H43V27H42zM43,26H44V27H43zM45,26H46V27H45zM50,26H51V27H50zM51,26H52V27H51zM52,26H53V27H52zM54,26H55V27H54zM60,26H61V27H60zM62,26H63V27H62zM67,26H68V27H67zM70,26H71V27H70zM74,26H75V27H74zM76,26H77V27H76zM77,26H78V27H77zM78,26H79V27H78zM81,26H82V27H81zM82,26H83V27H82zM86,26H87V27H86zM87,26H88V27H87zM88,26H89V27H88zM4,27H5V28H4zM6,27H7V28H6zM7,27H8V28H7zM8,27H9V28H8zM13,27H14V28H13zM16,27H17V28H16zM17,27H18V28H17zM18,27H19V28H18zM19,27H20V28H19zM21,27H22V28H21zM22,27H23V28H22zM24,27H25V28H24zM28,27H29V28H28zM29,27H30V28H29zM30,27H31V28H30zM31,27H32V28H31zM32,27H33V28H32zM34,27H35V28H34zM36,27H37V28H36zM37,27H38V28H37zM41,27H42V28H41zM43,27H44V28H43zM46,27H47V28H46zM52,27H53V28H52zM55,27H56V28H55zM57,27H58V28H57zM61,27H62V28H61zM63,27H64V28H63zM64,27H65V28H64zM67,27H68V28H67zM71,27H72V28H71zM73,27H74V28H73zM75,27H76V28H75zM77,27H78V28H77zM79,27H80V28H79zM80,27H81V28H80zM84,27H85V28H84zM88,27H89V28H88zM4,28H5V29H4zM5,28H6V29H5zM6,28H7V29H6zM7,28H8V29H7zM10,28H11V29H10zM13,28H14V29H13zM19,28H20V29H19zM20,28H21V29H20zM21,28H22V29H21zM22,28H23V29H22zM23,28H24V29H23zM30,28H31V29H30zM33,28H34V29H33zM34,28H35V29H34zM36,28H37V29H36zM38,28H39V29H38zM39,28H40V29H39zM40,28H41V29H40zM42,28H43V29H42zM45,28H46V29H45zM49,28H50V29H49zM52,28H53V29H52zM55,28H56V29H55zM58,28H59V29H58zM60,28H61V29H60zM65,28H66V29H65zM68,28H69V29H68zM69,28H70V29H69zM73,28H74V29H73zM76,28H77V29H76zM78,28H79V29H78zM79,28H80V29H79zM80,28H81V29H80zM82,28H83V29H82zM83,28H84V29H83zM84,28H85V29H84zM85,28H86V29H85zM86,28H87V29H86zM88,28H89V29H88zM4,29H5V30H4zM5,29H6V30H5zM7,29H8V30H7zM8,29H9V30H8zM13,29H14V30H13zM14,29H15V30H14zM15,29H16V30H15zM16,29H17V30H16zM17,29H18V30H17zM18,29H19V30H18zM19,29H20V30H19zM21,29H22V30H21zM23,29H24V30H23zM24,29H25V30H24zM26,29H27V30H26zM27,29H28V30H27zM28,29H29V30H28zM29,29H30V30H29zM30,29H31V30H30zM34,29H35V30H34zM35,29H36V30H35zM36,29H37V30H36zM37,29H38V30H37zM41,29H42V30H41zM44,29H45V30H44zM45,29H46V30H45zM46,29H47V30H46zM47,29H48V30H47zM48,29H49V30H48zM49,29H50V30H49zM51,29H52V30H51zM54,29H55V30H54zM55,29H56V30H55zM56,29H57V30H56zM59,29H60V30H59zM61,29H62V30H61zM62,29H63V30H62zM63,29H64V30H63zM64,29H65V30H64zM66,29H67V30H66zM71,29H72V30H71zM72,29H73V30H72zM73,29H74V30H73zM79,29H80V30H79zM80,29H81V30H80zM5,30H6V31H5zM6,30H7V31H6zM7,30H8V31H7zM9,30H10V31H9zM10,30H11V31H10zM16,30H17V31H16zM17,30H18V31H17zM20,30H21V31H20zM22,30H23V31H22zM23,30H24V31H23zM31,30H32V31H31zM33,30H34V31H33zM38,30H39V31H38zM42,30H43V31H42zM43,30H44V31H43zM45,30H46V31H45zM46,30H47V31H46zM51,30H52V31H51zM52,30H53V31H52zM55,30H56V31H55zM58,30H59V31H58zM59,30H60V31H59zM60,30H61V31H60zM61,30H62V31H61zM66,30H67V31H66zM67,30H68V31H67zM68,30H69V31H68zM70,30H71V31H70zM76,30H77V31H76zM77,30H78V31H77zM78,30H79V31H78zM81,30H82V31H81zM82,30H83V31H82zM87,30H88V31H87zM88,30H89V31H88zM5,31H6V32H5zM8,31H9V32H8zM9,31H10V32H9zM11,31H12V32H11zM13,31H14V32H13zM16,31H17V32H16zM17,31H18V32H17zM18,31H19V32H18zM19,31H20V32H19zM20,31H21V32H20zM21,31H22V32H21zM23,31H24V32H23zM24,31H25V32H24zM27,31H28V32H27zM28,31H29V32H28zM30,31H31V32H30zM35,31H36V32H35zM37,31H38V32H37zM40,31H41V32H40zM41,31H42V32H41zM43,31H44V32H43zM44,31H45V32H44zM46,31H47V32H46zM53,31H54V32H53zM55,31H56V32H55zM56,31H57V32H56zM61,31H62V32H61zM64,31H65V32H64zM66,31H67V32H66zM67,31H68V32H67zM68,31H69V32H68zM70,31H71V32H70zM71,31H72V32H71zM72,31H73V32H72zM74,31H75V32H74zM79,31H80V32H79zM81,31H82V32H81zM83,31H84V32H83zM84,31H85V32H84zM85,31H86V32H85zM88,31H89V32H88zM8,32H9V33H8zM9,32H10V33H9zM10,32H11V33H10zM11,32H12V33H11zM12,32H13V33H12zM13,32H14V33H13zM16,32H17V33H16zM17,32H18V33H17zM19,32H20V33H19zM26,32H27V33H26zM27,32H28V33H27zM32,32H33V33H32zM33,32H34V33H33zM34,32H35V33H34zM35,32H36V33H35zM36,32H37V33H36zM38,32H39V33H38zM39,32H40V33H39zM42,32H43V33H42zM43,32H44V33H43zM45,32H46V33H45zM52,32H53V33H52zM54,32H55V33H54zM55,32H56V33H55zM56,32H57V33H56zM57,32H58V33H57zM58,32H59V33H58zM59,32H60V33H59zM60,32H61V33H60zM65,32H66V33H65zM67,32H68V33H67zM72,32H73V33H72zM73,32H74V33H73zM74,32H75V33H74zM77,32H78V33H77zM78,32H79V33H78zM80,32H81V33H80zM81,32H82V33H81zM82,32H83V33H82zM83,32H84V33H83zM84,32H85V33H84zM86,32H87V33H86zM4,33H5V34H4zM5,33H6V34H5zM6,33H7V34H6zM7,33H8V34H7zM8,33H9V34H8zM12,33H13V34H12zM13,33H14V34H13zM16,33H17V34H16zM18,33H19V34H18zM19,33H20V34H19zM20,33H21V34H20zM21,33H22V34H21zM24,33H25V34H24zM26,33H27V34H26zM27,33H28V34H27zM29,33H30V34H29zM30,33H31V34H30zM31,33H32V34H31zM32,33H33V34H32zM36,33H37V34H36zM37,33H38V34H37zM40,33H41V34H40zM44,33H45V34H44zM46,33H47V34H46zM47,33H48V34H47zM48,33H49V34H48zM53,33H54V34H53zM55,33H56V34H55zM56,33H57V34H56zM60,33H61V34H60zM61,33H62V34H61zM62,33H63V34H62zM63,33H64V34H63zM64,33H65V34H64zM65,33H66V34H65zM66,33H67V34H66zM68,33H69V34H68zM70,33H71V34H70zM71,33H72V34H71zM73,33H74V34H73zM75,33H76V34H75zM80,33H81V34H80zM84,33H85V34H84zM85,33H86V34H85zM86,33H87V34H86zM5,34H6V35H5zM7,34H8V35H7zM8,34H9V35H8zM10,34H11V35H10zM12,34H13V35H12zM15,34H16V35H15zM16,34H17V35H16zM17,34H18V35H17zM21,34H22V35H21zM22,34H23V35H22zM23,34H24V35H23zM27,34H28V35H27zM30,34H31V35H30zM32,34H33V35H32zM34,34H35V35H34zM36,34H37V35H36zM38,34H39V35H38zM39,34H40V35H39zM42,34H43V35H42zM43,34H44V35H43zM49,34H50V35H49zM50,34H51V35H50zM51,34H52V35H51zM52,34H53V35H52zM54,34H55V35H54zM55,34H56V35H55zM56,34H57V35H56zM58,34H59V35H58zM60,34H61V35H60zM61,34H62V35H61zM64,34H65V35H64zM67,34H68V35H67zM68,34H69V35H68zM69,34H70V35H69zM74,34H75V35H74zM77,34H78V35H77zM79,34H80V35H79zM80,34H81V35H80zM82,34H83V35H82zM84,34H85V35H84zM85,34H86V35H85zM86,34H87V35H86zM87,34H88V35H87zM88,34H89V35H88zM5,35H6V36H5zM7,35H8V36H7zM8,35H9V36H8zM12,35H13V36H12zM14,35H15V36H14zM16,35H17V36H16zM17,35H18V36H17zM20,35H21V36H20zM21,35H22V36H21zM22,35H23V36H22zM23,35H24V36H23zM25,35H26V36H25zM26,35H27V36H26zM28,35H29V36H28zM29,35H30V36H29zM30,35H31V36H30zM31,35H32V36H31zM32,35H33V36H32zM36,35H37V36H36zM37,35H38V36H37zM43,35H44V36H43zM45,35H46V36H45zM46,35H47V36H46zM53,35H54V36H53zM54,35H55V36H54zM56,35H57V36H56zM60,35H61V36H60zM61,35H62V36H61zM62,35H63V36H62zM63,35H64V36H63zM67,35H68V36H67zM70,35H71V36H70zM71,35H72V36H71zM72,35H73V36H72zM75,35H76V36H75zM76,35H77V36H76zM78,35H79V36H78zM79,35H80V36H79zM80,35H81V36H80zM84,35H85V36H84zM88,35H89V36H88zM7,36H8V37H7zM8,36H9V37H8zM9,36H10V37H9zM10,36H11V37H10zM11,36H12V37H11zM12,36H13V37H12zM15,36H16V37H15zM16,36H17V37H16zM17,36H18V37H17zM24,36H25V37H24zM25,36H26V37H25zM28,36H29V37H28zM29,36H30V37H29zM30,36H31V37H30zM31,36H32V37H31zM32,36H33V37H32zM33,36H34V37H33zM34,36H35V37H34zM35,36H36V37H35zM36,36H37V37H36zM38,36H39V37H38zM41,36H42V37H41zM42,36H43V37H42zM51,36H52V37H51zM52,36H53V37H52zM55,36H56V37H55zM56,36H57V37H56zM57,36H58V37H57zM58,36H59V37H58zM59,36H60V37H59zM60,36H61V37H60zM64,36H65V37H64zM65,36H66V37H65zM66,36H67V37H66zM67,36H68V37H67zM68,36H69V37H68zM69,36H70V37H69zM72,36H73V37H72zM73,36H74V37H73zM74,36H75V37H74zM76,36H77V37H76zM77,36H78V37H77zM78,36H79V37H78zM80,36H81V37H80zM81,36H82V37H81zM82,36H83V37H82zM83,36H84V37H83zM84,36H85V37H84zM86,36H87V37H86zM88,36H89V37H88zM6,37H7V38H6zM7,37H8V38H7zM9,37H10V38H9zM13,37H14V38H13zM14,37H15V38H14zM15,37H16V38H15zM19,37H20V38H19zM20,37H21V38H20zM21,37H22V38H21zM22,37H23V38H22zM24,37H25V38H24zM25,37H26V38H25zM28,37H29V38H28zM30,37H31V38H30zM33,37H34V38H33zM34,37H35V38H34zM40,37H41V38H40zM42,37H43V38H42zM43,37H44V38H43zM44,37H45V38H44zM46,37H47V38H46zM47,37H48V38H47zM48,37H49V38H48zM49,37H50V38H49zM50,37H51V38H50zM53,37H54V38H53zM55,37H56V38H55zM58,37H59V38H58zM59,37H60V38H59zM61,37H62V38H61zM62,37H63V38H62zM63,37H64V38H63zM66,37H67V38H66zM70,37H71V38H70zM71,37H72V38H71zM75,37H76V38H75zM79,37H80V38H79zM81,37H82V38H81zM82,37H83V38H82zM83,37H84V38H83zM86,37H87V38H86zM87,37H88V38H87zM4,38H5V39H4zM6,38H7V39H6zM7,38H8V39H7zM10,38H11V39H10zM11,38H12V39H11zM13,38H14V39H13zM14,38H15V39H14zM15,38H16V39H15zM16,38H17V39H16zM17,38H18V39H17zM18,38H19V39H18zM19,38H20V39H19zM20,38H21V39H20zM21,38H22V39H21zM25,38H26V39H25zM29,38H30V39H29zM30,38H31V39H30zM31,38H32V39H31zM34,38H35V39H34zM35,38H36V39H35zM37,38H38V39H37zM38,38H39V39H38zM40,38H41V39H40zM41,38H42V39H41zM43,38H44V39H43zM44,38H45V39H44zM49,38H50V39H49zM50,38H51V39H50zM51,38H52V39H51zM52,38H53V39H52zM54,38H55V39H54zM56,38H57V39H56zM57,38H58V39H57zM58,38H59V39H58zM60,38H61V39H60zM61,38H62V39H61zM64,38H65V39H64zM67,38H68V39H67zM68,38H69V39H68zM69,38H70V39H69zM70,38H71V39H70zM72,38H73V39H72zM73,38H74V39H73zM74,38H75V39H74zM77,38H78V39H77zM78,38H79V39H78zM79,38H80V39H79zM80,38H81V39H80zM82,38H83V39H82zM85,38H86V39H85zM88,38H89V39H88zM4,39H5V40H4zM6,39H7V40H6zM11,39H12V40H11zM14,39H15V40H14zM21,39H22V40H21zM22,39H23V40H22zM24,39H25V40H24zM27,39H28V40H27zM28,39H29V40H28zM31,39H32V40H31zM33,39H34V40H33zM35,39H36V40H35zM37,39H38V40H37zM39,39H40V40H39zM43,39H44V40H43zM44,39H45V40H44zM45,39H46V40H45zM46,39H47V40H46zM48,39H49V40H48zM50,39H51V40H50zM51,39H52V40H51zM52,39H53V40H52zM53,39H54V40H53zM55,39H56V40H55zM56,39H57V40H56zM57,39H58V40H57zM58,39H59V40H58zM59,39H60V40H59zM61,39H62V40H61zM62,39H63V40H62zM65,39H66V40H65zM68,39H69V40H68zM69,39H70V40H69zM72,39H73V40H72zM73,39H74V40H73zM75,39H76V40H75zM76,39H77V40H76zM81,39H82V40H81zM82,39H83V40H82zM84,39H85V40H84zM88,39H89V40H88zM4,40H5V41H4zM5,40H6V41H5zM9,40H10V41H9zM10,40H11V41H10zM11,40H12V41H11zM13,40H14V41H13zM15,40H16V41H15zM17,40H18V41H17zM22,40H23V41H22zM24,40H25V41H24zM25,40H26V41H25zM29,40H30V41H29zM33,40H34V41H33zM34,40H35V41H34zM38,40H39V41H38zM40,40H41V41H40zM41,40H42V41H41zM42,40H43V41H42zM45,40H46V41H45zM46,40H47V41H46zM47,40H48V41H47zM49,40H50V41H49zM51,40H52V41H51zM52,40H53V41H52zM54,40H55V41H54zM58,40H59V41H58zM63,40H64V41H63zM64,40H65V41H64zM65,40H66V41H65zM67,40H68V41H67zM68,40H69V41H68zM77,40H78V41H77zM79,40H80V41H79zM80,40H81V41H80zM83,40H84V41H83zM85,40H86V41H85zM86,40H87V41H86zM87,40H88V41H87zM88,40H89V41H88zM9,41H10V42H9zM14,41H15V42H14zM17,41H18V42H17zM25,41H26V42H25zM26,41H27V42H26zM28,41H29V42H28zM29,41H30V42H29zM31,41H32V42H31zM33,41H34V42H33zM34,41H35V42H34zM37,41H38V42H37zM38,41H39V42H38zM39,41H40V42H39zM40,41H41V42H40zM42,41H43V42H42zM43,41H44V42H43zM44,41H45V42H44zM45,41H46V42H45zM46,41H47V42H46zM48,41H49V42H48zM50,41H51V42H50zM51,41H52V42H51zM53,41H54V42H53zM55,41H56V42H55zM58,41H59V42H58zM59,41H60V42H59zM61,41H62V42H61zM62,41H63V42H62zM66,41H67V42H66zM70,41H71V42H70zM71,41H72V42H71zM72,41H73V42H72zM73,41H74V42H73zM74,41H75V42H74zM75,41H76V42H75zM76,41H77V42H76zM78,41H79V42H78zM80,41H81V42H80zM84,41H85V42H84zM85,41H86V42H85zM88,41H89V42H88zM5,42H6V43H5zM7,42H8V43H7zM10,42H11V43H10zM12,42H13V43H12zM13,42H14V43H13zM16,42H17V43H16zM17,42H18V43H17zM23,42H24V43H23zM24,42H25V43H24zM25,42H26V43H25zM28,42H29V43H28zM30,42H31V43H30zM32,42H33V43H32zM34,42H35V43H34zM36,42H37V43H36zM37,42H38V43H37zM39,42H40V43H39zM40,42H41V43H40zM41,42H42V43H41zM44,42H45V43H44zM45,42H46V43H45zM47,42H48V43H47zM49,42H50V43H49zM52,42H53V43H52zM56,42H57V43H56zM57,42H58V43H57zM60,42H61V43H60zM61,42H62V43H61zM62,42H63V43H62zM63,42H64V43H63zM64,42H65V43H64zM65,42H66V43H65zM66,42H67V43H66zM67,42H68V43H67zM69,42H70V43H69zM73,42H74V43H73zM78,42H79V43H78zM80,42H81V43H80zM82,42H83V43H82zM83,42H84V43H83zM84,42H85V43H84zM85,42H86V43H85zM87,42H88V43H87zM88,42H89V43H88zM4,43H5V44H4zM6,43H7V44H6zM8,43H9V44H8zM9,43H10V44H9zM11,43H12V44H11zM12,43H13V44H12zM14,43H15V44H14zM15,43H16V44H15zM17,43H18V44H17zM19,43H20V44H19zM20,43H21V44H20zM21,43H22V44H21zM23,43H24V44H23zM26,43H27V44H26zM28,43H29V44H28zM30,43H31V44H30zM33,43H34V44H33zM34,43H35V44H34zM35,43H36V44H35zM37,43H38V44H37zM39,43H40V44H39zM40,43H41V44H40zM43,43H44V44H43zM45,43H46V44H45zM50,43H51V44H50zM51,43H52V44H51zM52,43H53V44H52zM55,43H56V44H55zM56,43H57V44H56zM59,43H60V44H59zM61,43H62V44H61zM62,43H63V44H62zM63,43H64V44H63zM67,43H68V44H67zM68,43H69V44H68zM69,43H70V44H69zM70,43H71V44H70zM73,43H74V44H73zM75,43H76V44H75zM76,43H77V44H76zM78,43H79V44H78zM79,43H80V44H79zM81,43H82V44H81zM82,43H83V44H82zM84,43H85V44H84zM85,43H86V44H85zM88,43H89V44H88zM4,44H5V45H4zM5,44H6V45H5zM6,44H7V45H6zM7,44H8V45H7zM8,44H9V45H8zM10,44H11V45H10zM11,44H12V45H11zM18,44H19V45H18zM21,44H22V45H21zM22,44H23V45H22zM25,44H26V45H25zM32,44H33V45H32zM33,44H34V45H33zM36,44H37V45H36zM38,44H39V45H38zM40,44H41V45H40zM44,44H45V45H44zM46,44H47V45H46zM47,44H48V45H47zM48,44H49V45H48zM49,44H50V45H49zM53,44H54V45H53zM54,44H55V45H54zM55,44H56V45H55zM57,44H58V45H57zM64,44H65V45H64zM65,44H66V45H65zM66,44H67V45H66zM69,44H70V45H69zM72,44H73V45H72zM77,44H78V45H77zM78,44H79V45H78zM79,44H80V45H79zM80,44H81V45H80zM82,44H83V45H82zM83,44H84V45H83zM86,44H87V45H86zM88,44H89V45H88zM4,45H5V46H4zM5,45H6V46H5zM9,45H10V46H9zM12,45H13V46H12zM18,45H19V46H18zM22,45H23V46H22zM26,45H27V46H26zM27,45H28V46H27zM29,45H30V46H29zM31,45H32V46H31zM33,45H34V46H33zM35,45H36V46H35zM39,45H40V46H39zM40,45H41V46H40zM46,45H47V46H46zM51,45H52V46H51zM56,45H57V46H56zM58,45H59V46H58zM59,45H60V46H59zM62,45H63V46H62zM63,45H64V46H63zM70,45H71V46H70zM71,45H72V46H71zM73,45H74V46H73zM74,45H75V46H74zM75,45H76V46H75zM76,45H77V46H76zM79,45H80V46H79zM82,45H83V46H82zM84,45H85V46H84zM85,45H86V46H85zM7,46H8V47H7zM8,46H9V47H8zM10,46H11V47H10zM12,46H13V47H12zM14,46H15V47H14zM18,46H19V47H18zM23,46H24V47H23zM25,46H26V47H25zM27,46H28V47H27zM29,46H30V47H29zM31,46H32V47H31zM32,46H33V47H32zM37,46H38V47H37zM38,46H39V47H38zM40,46H41V47H40zM47,46H48V47H47zM48,46H49V47H48zM49,46H50V47H49zM50,46H51V47H50zM52,46H53V47H52zM58,46H59V47H58zM61,46H62V47H61zM64,46H65V47H64zM65,46H66V47H65zM66,46H67V47H66zM67,46H68V47H67zM69,46H70V47H69zM77,46H78V47H77zM78,46H79V47H78zM80,46H81V47H80zM81,46H82V47H81zM83,46H84V47H83zM84,46H85V47H84zM86,46H87V47H86zM6,47H7V48H6zM8,47H9V48H8zM12,47H13V48H12zM21,47H22V48H21zM23,47H24V48H23zM29,47H30V48H29zM33,47H34V48H33zM39,47H40V48H39zM40,47H41V48H40zM41,47H42V48H41zM42,47H43V48H42zM43,47H44V48H43zM44,47H45V48H44zM45,47H46V48H45zM48,47H49V48H48zM49,47H50V48H49zM51,47H52V48H51zM55,47H56V48H55zM56,47H57V48H56zM59,47H60V48H59zM60,47H61V48H60zM61,47H62V48H61zM63,47H64V48H63zM64,47H65V48H64zM65,47H66V48H65zM68,47H69V48H68zM73,47H74V48H73zM79,47H80V48H79zM82,47H83V48H82zM84,47H85V48H84zM85,47H86V48H85zM9,48H10V49H9zM10,48H11V49H10zM11,48H12V49H11zM18,48H19V49H18zM19,48H20V49H19zM21,48H22V49H21zM22,48H23V49H22zM23,48H24V49H23zM24,48H25V49H24zM25,48H26V49H25zM28,48H29V49H28zM29,48H30V49H29zM33,48H34V49H33zM34,48H35V49H34zM36,48H37V49H36zM37,48H38V49H37zM38,48H39V49H38zM41,48H42V49H41zM42,48H43V49H42zM47,48H48V49H47zM50,48H51V49H50zM52,48H53V49H52zM53,48H54V49H53zM54,48H55V49H54zM58,48H59V49H58zM62,48H63V49H62zM64,48H65V49H64zM66,48H67V49H66zM67,48H68V49H67zM69,48H70V49H69zM70,48H71V49H70zM72,48H73V49H72zM77,48H78V49H77zM80,48H81V49H80zM81,48H82V49H81zM82,48H83V49H82zM83,48H84V49H83zM86,48H87V49H86zM87,48H88V49H87zM88,48H89V49H88zM4,49H5V50H4zM5,49H6V50H5zM9,49H10V50H9zM11,49H12V50H11zM12,49H13V50H12zM15,49H16V50H15zM16,49H17V50H16zM17,49H18V50H17zM19,49H20V50H19zM21,49H22V50H21zM23,49H24V50H23zM25,49H26V50H25zM26,49H27V50H26zM27,49H28V50H27zM29,49H30V50H29zM33,49H34V50H33zM35,49H36V50H35zM36,49H37V50H36zM37,49H38V50H37zM38,49H39V50H38zM45,49H46V50H45zM46,49H47V50H46zM51,49H52V50H51zM55,49H56V50H55zM58,49H59V50H58zM61,49H62V50H61zM62,49H63V50H62zM65,49H66V50H65zM67,49H68V50H67zM68,49H69V50H68zM71,49H72V50H71zM73,49H74V50H73zM74,49H75V50H74zM75,49H76V50H75zM76,49H77V50H76zM78,49H79V50H78zM79,49H80V50H79zM82,49H83V50H82zM83,49H84V50H83zM85,49H86V50H85zM5,50H6V51H5zM6,50H7V51H6zM7,50H8V51H7zM8,50H9V51H8zM9,50H10V51H9zM10,50H11V51H10zM12,50H13V51H12zM14,50H15V51H14zM18,50H19V51H18zM20,50H21V51H20zM26,50H27V51H26zM28,50H29V51H28zM29,50H30V51H29zM32,50H33V51H32zM33,50H34V51H33zM36,50H37V51H36zM37,50H38V51H37zM38,50H39V51H38zM39,50H40V51H39zM40,50H41V51H40zM41,50H42V51H41zM42,50H43V51H42zM43,50H44V51H43zM47,50H48V51H47zM48,50H49V51H48zM50,50H51V51H50zM52,50H53V51H52zM56,50H57V51H56zM57,50H58V51H57zM60,50H61V51H60zM62,50H63V51H62zM66,50H67V51H66zM68,50H69V51H68zM70,50H71V51H70zM77,50H78V51H77zM79,50H80V51H79zM80,50H81V51H80zM81,50H82V51H81zM86,50H87V51H86zM88,50H89V51H88zM4,51H5V52H4zM5,51H6V52H5zM6,51H7V52H6zM7,51H8V52H7zM9,51H10V52H9zM12,51H13V52H12zM14,51H15V52H14zM16,51H17V52H16zM17,51H18V52H17zM19,51H20V52H19zM21,51H22V52H21zM23,51H24V52H23zM24,51H25V52H24zM32,51H33V52H32zM35,51H36V52H35zM36,51H37V52H36zM37,51H38V52H37zM40,51H41V52H40zM41,51H42V52H41zM44,51H45V52H44zM46,51H47V52H46zM47,51H48V52H47zM53,51H54V52H53zM55,51H56V52H55zM58,51H59V52H58zM59,51H60V52H59zM61,51H62V52H61zM63,51H64V52H63zM64,51H65V52H64zM65,51H66V52H65zM70,51H71V52H70zM71,51H72V52H71zM72,51H73V52H72zM73,51H74V52H73zM78,51H79V52H78zM79,51H80V52H79zM80,51H81V52H80zM82,51H83V52H82zM83,51H84V52H83zM84,51H85V52H84zM6,52H7V53H6zM9,52H10V53H9zM10,52H11V53H10zM12,52H13V53H12zM13,52H14V53H13zM14,52H15V53H14zM15,52H16V53H15zM16,52H17V53H16zM18,52H19V53H18zM20,52H21V53H20zM22,52H23V53H22zM26,52H27V53H26zM27,52H28V53H27zM28,52H29V53H28zM31,52H32V53H31zM33,52H34V53H33zM34,52H35V53H34zM35,52H36V53H35zM36,52H37V53H36zM39,52H40V53H39zM40,52H41V53H40zM46,52H47V53H46zM47,52H48V53H47zM49,52H50V53H49zM50,52H51V53H50zM51,52H52V53H51zM52,52H53V53H52zM54,52H55V53H54zM56,52H57V53H56zM58,52H59V53H58zM62,52H63V53H62zM64,52H65V53H64zM65,52H66V53H65zM67,52H68V53H67zM69,52H70V53H69zM70,52H71V53H70zM74,52H75V53H74zM77,52H78V53H77zM78,52H79V53H78zM83,52H84V53H83zM86,52H87V53H86zM87,52H88V53H87zM88,52H89V53H88zM7,53H8V54H7zM9,53H10V54H9zM12,53H13V54H12zM13,53H14V54H13zM14,53H15V54H14zM16,53H17V54H16zM19,53H20V54H19zM21,53H22V54H21zM22,53H23V54H22zM24,53H25V54H24zM25,53H26V54H25zM27,53H28V54H27zM28,53H29V54H28zM30,53H31V54H30zM32,53H33V54H32zM35,53H36V54H35zM36,53H37V54H36zM37,53H38V54H37zM41,53H42V54H41zM44,53H45V54H44zM46,53H47V54H46zM47,53H48V54H47zM48,53H49V54H48zM53,53H54V54H53zM55,53H56V54H55zM58,53H59V54H58zM59,53H60V54H59zM60,53H61V54H60zM61,53H62V54H61zM68,53H69V54H68zM72,53H73V54H72zM73,53H74V54H73zM75,53H76V54H75zM76,53H77V54H76zM82,53H83V54H82zM85,53H86V54H85zM87,53H88V54H87zM4,54H5V55H4zM5,54H6V55H5zM7,54H8V55H7zM9,54H10V55H9zM10,54H11V55H10zM11,54H12V55H11zM12,54H13V55H12zM13,54H14V55H13zM17,54H18V55H17zM19,54H20V55H19zM21,54H22V55H21zM22,54H23V55H22zM23,54H24V55H23zM24,54H25V55H24zM25,54H26V55H25zM26,54H27V55H26zM28,54H29V55H28zM29,54H30V55H29zM34,54H35V55H34zM39,54H40V55H39zM40,54H41V55H40zM42,54H43V55H42zM45,54H46V55H45zM48,54H49V55H48zM51,54H52V55H51zM53,54H54V55H53zM56,54H57V55H56zM57,54H58V55H57zM60,54H61V55H60zM62,54H63V55H62zM64,54H65V55H64zM65,54H66V55H65zM66,54H67V55H66zM67,54H68V55H67zM70,54H71V55H70zM71,54H72V55H71zM73,54H74V55H73zM76,54H77V55H76zM77,54H78V55H77zM81,54H82V55H81zM83,54H84V55H83zM86,54H87V55H86zM88,54H89V55H88zM4,55H5V56H4zM5,55H6V56H5zM9,55H10V56H9zM12,55H13V56H12zM14,55H15V56H14zM15,55H16V56H15zM16,55H17V56H16zM21,55H22V56H21zM27,55H28V56H27zM29,55H30V56H29zM30,55H31V56H30zM32,55H33V56H32zM36,55H37V56H36zM38,55H39V56H38zM39,55H40V56H39zM40,55H41V56H40zM41,55H42V56H41zM42,55H43V56H42zM46,55H47V56H46zM48,55H49V56H48zM49,55H50V56H49zM55,55H56V56H55zM56,55H57V56H56zM58,55H59V56H58zM59,55H60V56H59zM64,55H65V56H64zM68,55H69V56H68zM72,55H73V56H72zM73,55H74V56H73zM74,55H75V56H74zM76,55H77V56H76zM78,55H79V56H78zM82,55H83V56H82zM83,55H84V56H83zM85,55H86V56H85zM4,56H5V57H4zM5,56H6V57H5zM6,56H7V57H6zM7,56H8V57H7zM8,56H9V57H8zM9,56H10V57H9zM10,56H11V57H10zM11,56H12V57H11zM12,56H13V57H12zM13,56H14V57H13zM15,56H16V57H15zM17,56H18V57H17zM19,56H20V57H19zM22,56H23V57H22zM27,56H28V57H27zM28,56H29V57H28zM29,56H30V57H29zM32,56H33V57H32zM33,56H34V57H33zM34,56H35V57H34zM35,56H36V57H35zM36,56H37V57H36zM37,56H38V57H37zM38,56H39V57H38zM40,56H41V57H40zM42,56H43V57H42zM45,56H46V57H45zM47,56H48V57H47zM50,56H51V57H50zM51,56H52V57H51zM52,56H53V57H52zM53,56H54V57H53zM54,56H55V57H54zM55,56H56V57H55zM56,56H57V57H56zM57,56H58V57H57zM58,56H59V57H58zM59,56H60V57H59zM60,56H61V57H60zM65,56H66V57H65zM66,56H67V57H66zM67,56H68V57H67zM69,56H70V57H69zM71,56H72V57H71zM74,56H75V57H74zM77,56H78V57H77zM79,56H80V57H79zM80,56H81V57H80zM81,56H82V57H81zM82,56H83V57H82zM83,56H84V57H83zM84,56H85V57H84zM85,56H86V57H85zM86,56H87V57H86zM87,56H88V57H87zM88,56H89V57H88zM7,57H8V58H7zM8,57H9V58H8zM12,57H13V58H12zM13,57H14V58H13zM14,57H15V58H14zM16,57H17V58H16zM18,57H19V58H18zM22,57H23V58H22zM26,57H27V58H26zM28,57H29V58H28zM29,57H30V58H29zM32,57H33V58H32zM36,57H37V58H36zM38,57H39V58H38zM41,57H42V58H41zM44,57H45V58H44zM46,57H47V58H46zM53,57H54V58H53zM56,57H57V58H56zM60,57H61V58H60zM63,57H64V58H63zM64,57H65V58H64zM67,57H68V58H67zM70,57H71V58H70zM71,57H72V58H71zM73,57H74V58H73zM75,57H76V58H75zM76,57H77V58H76zM77,57H78V58H77zM78,57H79V58H78zM80,57H81V58H80zM84,57H85V58H84zM88,57H89V58H88zM5,58H6V59H5zM6,58H7V59H6zM7,58H8V59H7zM8,58H9V59H8zM10,58H11V59H10zM12,58H13V59H12zM13,58H14V59H13zM15,58H16V59H15zM17,58H18V59H17zM18,58H19V59H18zM21,58H22V59H21zM22,58H23V59H22zM24,58H25V59H24zM29,58H30V59H29zM32,58H33V59H32zM34,58H35V59H34zM36,58H37V59H36zM37,58H38V59H37zM39,58H40V59H39zM40,58H41V59H40zM42,58H43V59H42zM43,58H44V59H43zM45,58H46V59H45zM46,58H47V59H46zM49,58H50V59H49zM51,58H52V59H51zM52,58H53V59H52zM55,58H56V59H55zM56,58H57V59H56zM58,58H59V59H58zM60,58H61V59H60zM61,58H62V59H61zM62,58H63V59H62zM64,58H65V59H64zM66,58H67V59H66zM67,58H68V59H67zM68,58H69V59H68zM71,58H72V59H71zM72,58H73V59H72zM76,58H77V59H76zM80,58H81V59H80zM82,58H83V59H82zM84,58H85V59H84zM85,58H86V59H85zM86,58H87V59H86zM4,59H5V60H4zM8,59H9V60H8zM12,59H13V60H12zM13,59H14V60H13zM15,59H16V60H15zM16,59H17V60H16zM18,59H19V60H18zM21,59H22V60H21zM23,59H24V60H23zM25,59H26V60H25zM27,59H28V60H27zM30,59H31V60H30zM32,59H33V60H32zM36,59H37V60H36zM37,59H38V60H37zM38,59H39V60H38zM40,59H41V60H40zM42,59H43V60H42zM44,59H45V60H44zM46,59H47V60H46zM47,59H48V60H47zM52,59H53V60H52zM53,59H54V60H53zM56,59H57V60H56zM60,59H61V60H60zM61,59H62V60H61zM63,59H64V60H63zM64,59H65V60H64zM71,59H72V60H71zM73,59H74V60H73zM75,59H76V60H75zM77,59H78V60H77zM78,59H79V60H78zM79,59H80V60H79zM80,59H81V60H80zM84,59H85V60H84zM87,59H88V60H87zM4,60H5V61H4zM5,60H6V61H5zM6,60H7V61H6zM8,60H9V61H8zM9,60H10V61H9zM10,60H11V61H10zM11,60H12V61H11zM12,60H13V61H12zM14,60H15V61H14zM18,60H19V61H18zM20,60H21V61H20zM22,60H23V61H22zM27,60H28V61H27zM30,60H31V61H30zM31,60H32V61H31zM32,60H33V61H32zM33,60H34V61H33zM34,60H35V61H34zM35,60H36V61H35zM36,60H37V61H36zM38,60H39V61H38zM39,60H40V61H39zM40,60H41V61H40zM45,60H46V61H45zM49,60H50V61H49zM50,60H51V61H50zM52,60H53V61H52zM54,60H55V61H54zM56,60H57V61H56zM57,60H58V61H57zM58,60H59V61H58zM59,60H60V61H59zM60,60H61V61H60zM62,60H63V61H62zM64,60H65V61H64zM65,60H66V61H65zM67,60H68V61H67zM69,60H70V61H69zM70,60H71V61H70zM72,60H73V61H72zM76,60H77V61H76zM77,60H78V61H77zM78,60H79V61H78zM79,60H80V61H79zM80,60H81V61H80zM81,60H82V61H81zM82,60H83V61H82zM83,60H84V61H83zM84,60H85V61H84zM85,60H86V61H85zM88,60H89V61H88zM4,61H5V62H4zM6,61H7V62H6zM8,61H9V62H8zM9,61H10V62H9zM11,61H12V62H11zM12,61H13V62H12zM15,61H16V62H15zM16,61H17V62H16zM19,61H20V62H19zM22,61H23V62H22zM23,61H24V62H23zM27,61H28V62H27zM28,61H29V62H28zM29,61H30V62H29zM31,61H32V62H31zM33,61H34V62H33zM35,61H36V62H35zM36,61H37V62H36zM37,61H38V62H37zM41,61H42V62H41zM44,61H45V62H44zM46,61H47V62H46zM47,61H48V62H47zM53,61H54V62H53zM55,61H56V62H55zM57,61H58V62H57zM58,61H59V62H58zM61,61H62V62H61zM63,61H64V62H63zM66,61H67V62H66zM68,61H69V62H68zM72,61H73V62H72zM73,61H74V62H73zM74,61H75V62H74zM78,61H79V62H78zM79,61H80V62H79zM81,61H82V62H81zM85,61H86V62H85zM9,62H10V63H9zM10,62H11V63H10zM15,62H16V63H15zM19,62H20V63H19zM21,62H22V63H21zM22,62H23V63H22zM23,62H24V63H23zM28,62H29V63H28zM31,62H32V63H31zM32,62H33V63H32zM34,62H35V63H34zM36,62H37V63H36zM37,62H38V63H37zM39,62H40V63H39zM40,62H41V63H40zM43,62H44V63H43zM45,62H46V63H45zM46,62H47V63H46zM47,62H48V63H47zM49,62H50V63H49zM50,62H51V63H50zM51,62H52V63H51zM52,62H53V63H52zM59,62H60V63H59zM60,62H61V63H60zM62,62H63V63H62zM67,62H68V63H67zM68,62H69V63H68zM69,62H70V63H69zM72,62H73V63H72zM73,62H74V63H73zM75,62H76V63H75zM76,62H77V63H76zM77,62H78V63H77zM80,62H81V63H80zM82,62H83V63H82zM83,62H84V63H83zM86,62H87V63H86zM88,62H89V63H88zM8,63H9V64H8zM11,63H12V64H11zM14,63H15V64H14zM15,63H16V64H15zM16,63H17V64H16zM17,63H18V64H17zM18,63H19V64H18zM24,63H25V64H24zM25,63H26V64H25zM29,63H30V64H29zM33,63H34V64H33zM35,63H36V64H35zM38,63H39V64H38zM39,63H40V64H39zM44,63H45V64H44zM46,63H47V64H46zM47,63H48V64H47zM49,63H50V64H49zM55,63H56V64H55zM57,63H58V64H57zM58,63H59V64H58zM60,63H61V64H60zM61,63H62V64H61zM64,63H65V64H64zM68,63H69V64H68zM71,63H72V64H71zM72,63H73V64H72zM73,63H74V64H73zM74,63H75V64H74zM81,63H82V64H81zM83,63H84V64H83zM87,63H88V64H87zM5,64H6V65H5zM6,64H7V65H6zM8,64H9V65H8zM10,64H11V65H10zM13,64H14V65H13zM14,64H15V65H14zM15,64H16V65H15zM16,64H17V65H16zM18,64H19V65H18zM23,64H24V65H23zM24,64H25V65H24zM25,64H26V65H25zM26,64H27V65H26zM27,64H28V65H27zM30,64H31V65H30zM31,64H32V65H31zM32,64H33V65H32zM33,64H34V65H33zM34,64H35V65H34zM35,64H36V65H35zM36,64H37V65H36zM37,64H38V65H37zM40,64H41V65H40zM41,64H42V65H41zM42,64H43V65H42zM45,64H46V65H45zM47,64H48V65H47zM50,64H51V65H50zM52,64H53V65H52zM53,64H54V65H53zM54,64H55V65H54zM55,64H56V65H55zM56,64H57V65H56zM59,64H60V65H59zM64,64H65V65H64zM65,64H66V65H65zM66,64H67V65H66zM67,64H68V65H67zM68,64H69V65H68zM69,64H70V65H69zM70,64H71V65H70zM74,64H75V65H74zM75,64H76V65H75zM76,64H77V65H76zM79,64H80V65H79zM82,64H83V65H82zM85,64H86V65H85zM88,64H89V65H88zM6,65H7V66H6zM7,65H8V66H7zM11,65H12V66H11zM12,65H13V66H12zM14,65H15V66H14zM18,65H19V66H18zM21,65H22V66H21zM22,65H23V66H22zM23,65H24V66H23zM24,65H25V66H24zM26,65H27V66H26zM27,65H28V66H27zM28,65H29V66H28zM30,65H31V66H30zM31,65H32V66H31zM33,65H34V66H33zM34,65H35V66H34zM35,65H36V66H35zM38,65H39V66H38zM39,65H40V66H39zM44,65H45V66H44zM48,65H49V66H48zM51,65H52V66H51zM57,65H58V66H57zM58,65H59V66H58zM62,65H63V66H62zM63,65H64V66H63zM73,65H74V66H73zM74,65H75V66H74zM78,65H79V66H78zM80,65H81V66H80zM82,65H83V66H82zM5,66H6V67H5zM6,66H7V67H6zM9,66H10V67H9zM10,66H11V67H10zM11,66H12V67H11zM13,66H14V67H13zM14,66H15V67H14zM17,66H18V67H17zM18,66H19V67H18zM19,66H20V67H19zM23,66H24V67H23zM24,66H25V67H24zM26,66H27V67H26zM27,66H28V67H27zM30,66H31V67H30zM32,66H33V67H32zM35,66H36V67H35zM36,66H37V67H36zM40,66H41V67H40zM41,66H42V67H41zM42,66H43V67H42zM43,66H44V67H43zM46,66H47V67H46zM47,66H48V67H47zM51,66H52V67H51zM53,66H54V67H53zM54,66H55V67H54zM55,66H56V67H55zM56,66H57V67H56zM59,66H60V67H59zM60,66H61V67H60zM61,66H62V67H61zM64,66H65V67H64zM65,66H66V67H65zM67,66H68V67H67zM68,66H69V67H68zM73,66H74V67H73zM74,66H75V67H74zM75,66H76V67H75zM77,66H78V67H77zM79,66H80V67H79zM82,66H83V67H82zM83,66H84V67H83zM84,66H85V67H84zM88,66H89V67H88zM7,67H8V68H7zM8,67H9V68H8zM9,67H10V68H9zM11,67H12V68H11zM13,67H14V68H13zM14,67H15V68H14zM15,67H16V68H15zM19,67H20V68H19zM28,67H29V68H28zM29,67H30V68H29zM31,67H32V68H31zM35,67H36V68H35zM37,67H38V68H37zM39,67H40V68H39zM43,67H44V68H43zM45,67H46V68H45zM46,67H47V68H46zM48,67H49V68H48zM49,67H50V68H49zM51,67H52V68H51zM54,67H55V68H54zM57,67H58V68H57zM61,67H62V68H61zM62,67H63V68H62zM64,67H65V68H64zM67,67H68V68H67zM73,67H74V68H73zM75,67H76V68H75zM76,67H77V68H76zM78,67H79V68H78zM80,67H81V68H80zM81,67H82V68H81zM85,67H86V68H85zM86,67H87V68H86zM87,67H88V68H87zM5,68H6V69H5zM7,68H8V69H7zM10,68H11V69H10zM11,68H12V69H11zM18,68H19V69H18zM20,68H21V69H20zM22,68H23V69H22zM24,68H25V69H24zM25,68H26V69H25zM27,68H28V69H27zM30,68H31V69H30zM31,68H32V69H31zM33,68H34V69H33zM34,68H35V69H34zM36,68H37V69H36zM38,68H39V69H38zM40,68H41V69H40zM41,68H42V69H41zM42,68H43V69H42zM50,68H51V69H50zM52,68H53V69H52zM53,68H54V69H53zM55,68H56V69H55zM56,68H57V69H56zM58,68H59V69H58zM59,68H60V69H59zM65,68H66V69H65zM66,68H67V69H66zM68,68H69V69H68zM69,68H70V69H69zM72,68H73V69H72zM73,68H74V69H73zM74,68H75V69H74zM76,68H77V69H76zM79,68H80V69H79zM81,68H82V69H81zM82,68H83V69H82zM84,68H85V69H84zM85,68H86V69H85zM88,68H89V69H88zM9,69H10V70H9zM11,69H12V70H11zM13,69H14V70H13zM14,69H15V70H14zM15,69H16V70H15zM16,69H17V70H16zM17,69H18V70H17zM18,69H19V70H18zM19,69H20V70H19zM20,69H21V70H20zM21,69H22V70H21zM22,69H23V70H22zM28,69H29V70H28zM29,69H30V70H29zM30,69H31V70H30zM31,69H32V70H31zM32,69H33V70H32zM34,69H35V70H34zM35,69H36V70H35zM38,69H39V70H38zM39,69H40V70H39zM44,69H45V70H44zM46,69H47V70H46zM47,69H48V70H47zM48,69H49V70H48zM50,69H51V70H50zM51,69H52V70H51zM52,69H53V70H52zM53,69H54V70H53zM56,69H57V70H56zM57,69H58V70H57zM58,69H59V70H58zM61,69H62V70H61zM62,69H63V70H62zM63,69H64V70H63zM64,69H65V70H64zM70,69H71V70H70zM72,69H73V70H72zM73,69H74V70H73zM74,69H75V70H74zM75,69H76V70H75zM76,69H77V70H76zM79,69H80V70H79zM83,69H84V70H83zM85,69H86V70H85zM86,69H87V70H86zM87,69H88V70H87zM4,70H5V71H4zM5,70H6V71H5zM6,70H7V71H6zM8,70H9V71H8zM10,70H11V71H10zM11,70H12V71H11zM13,70H14V71H13zM14,70H15V71H14zM16,70H17V71H16zM21,70H22V71H21zM22,70H23V71H22zM25,70H26V71H25zM27,70H28V71H27zM28,70H29V71H28zM29,70H30V71H29zM30,70H31V71H30zM33,70H34V71H33zM34,70H35V71H34zM35,70H36V71H35zM36,70H37V71H36zM37,70H38V71H37zM38,70H39V71H38zM40,70H41V71H40zM43,70H44V71H43zM45,70H46V71H45zM51,70H52V71H51zM52,70H53V71H52zM54,70H55V71H54zM55,70H56V71H55zM56,70H57V71H56zM57,70H58V71H57zM59,70H60V71H59zM60,70H61V71H60zM61,70H62V71H61zM64,70H65V71H64zM66,70H67V71H66zM67,70H68V71H67zM74,70H75V71H74zM77,70H78V71H77zM78,70H79V71H78zM79,70H80V71H79zM80,70H81V71H80zM82,70H83V71H82zM84,70H85V71H84zM85,70H86V71H85zM87,70H88V71H87zM88,70H89V71H88zM4,71H5V72H4zM6,71H7V72H6zM11,71H12V72H11zM12,71H13V72H12zM13,71H14V72H13zM14,71H15V72H14zM15,71H16V72H15zM16,71H17V72H16zM17,71H18V72H17zM19,71H20V72H19zM23,71H24V72H23zM26,71H27V72H26zM27,71H28V72H27zM28,71H29V72H28zM30,71H31V72H30zM31,71H32V72H31zM33,71H34V72H33zM36,71H37V72H36zM37,71H38V72H37zM38,71H39V72H38zM39,71H40V72H39zM40,71H41V72H40zM44,71H45V72H44zM45,71H46V72H45zM46,71H47V72H46zM54,71H55V72H54zM58,71H59V72H58zM61,71H62V72H61zM62,71H63V72H62zM63,71H64V72H63zM67,71H68V72H67zM68,71H69V72H68zM70,71H71V72H70zM71,71H72V72H71zM73,71H74V72H73zM74,71H75V72H74zM75,71H76V72H75zM81,71H82V72H81zM83,71H84V72H83zM87,71H88V72H87zM88,71H89V72H88zM6,72H7V73H6zM8,72H9V73H8zM10,72H11V73H10zM11,72H12V73H11zM12,72H13V73H12zM17,72H18V73H17zM20,72H21V73H20zM23,72H24V73H23zM25,72H26V73H25zM27,72H28V73H27zM28,72H29V73H28zM29,72H30V73H29zM30,72H31V73H30zM31,72H32V73H31zM34,72H35V73H34zM35,72H36V73H35zM37,72H38V73H37zM39,72H40V73H39zM40,72H41V73H40zM41,72H42V73H41zM42,72H43V73H42zM49,72H50V73H49zM50,72H51V73H50zM51,72H52V73H51zM52,72H53V73H52zM55,72H56V73H55zM56,72H57V73H56zM58,72H59V73H58zM60,72H61V73H60zM65,72H66V73H65zM66,72H67V73H66zM67,72H68V73H67zM68,72H69V73H68zM69,72H70V73H69zM73,72H74V73H73zM74,72H75V73H74zM77,72H78V73H77zM79,72H80V73H79zM83,72H84V73H83zM84,72H85V73H84zM86,72H87V73H86zM87,72H88V73H87zM88,72H89V73H88zM4,73H5V74H4zM5,73H6V74H5zM12,73H13V74H12zM13,73H14V74H13zM15,73H16V74H15zM20,73H21V74H20zM22,73H23V74H22zM25,73H26V74H25zM28,73H29V74H28zM32,73H33V74H32zM37,73H38V74H37zM38,73H39V74H38zM39,73H40V74H39zM40,73H41V74H40zM44,73H45V74H44zM45,73H46V74H45zM46,73H47V74H46zM47,73H48V74H47zM48,73H49V74H48zM49,73H50V74H49zM54,73H55V74H54zM57,73H58V74H57zM58,73H59V74H58zM59,73H60V74H59zM60,73H61V74H60zM61,73H62V74H61zM62,73H63V74H62zM63,73H64V74H63zM64,73H65V74H64zM70,73H71V74H70zM71,73H72V74H71zM72,73H73V74H72zM73,73H74V74H73zM75,73H76V74H75zM79,73H80V74H79zM80,73H81V74H80zM82,73H83V74H82zM85,73H86V74H85zM86,73H87V74H86zM88,73H89V74H88zM4,74H5V75H4zM6,74H7V75H6zM7,74H8V75H7zM8,74H9V75H8zM10,74H11V75H10zM18,74H19V75H18zM20,74H21V75H20zM22,74H23V75H22zM23,74H24V75H23zM24,74H25V75H24zM25,74H26V75H25zM28,74H29V75H28zM29,74H30V75H29zM30,74H31V75H30zM31,74H32V75H31zM33,74H34V75H33zM35,74H36V75H35zM36,74H37V75H36zM37,74H38V75H37zM38,74H39V75H38zM40,74H41V75H40zM41,74H42V75H41zM43,74H44V75H43zM49,74H50V75H49zM50,74H51V75H50zM52,74H53V75H52zM54,74H55V75H54zM55,74H56V75H55zM56,74H57V75H56zM57,74H58V75H57zM59,74H60V75H59zM61,74H62V75H61zM64,74H65V75H64zM67,74H68V75H67zM72,74H73V75H72zM75,74H76V75H75zM77,74H78V75H77zM78,74H79V75H78zM79,74H80V75H79zM82,74H83V75H82zM84,74H85V75H84zM85,74H86V75H85zM87,74H88V75H87zM4,75H5V76H4zM6,75H7V76H6zM7,75H8V76H7zM8,75H9V76H8zM9,75H10V76H9zM12,75H13V76H12zM13,75H14V76H13zM14,75H15V76H14zM15,75H16V76H15zM17,75H18V76H17zM20,75H21V76H20zM22,75H23V76H22zM23,75H24V76H23zM26,75H27V76H26zM29,75H30V76H29zM30,75H31V76H30zM33,75H34V76H33zM34,75H35V76H34zM36,75H37V76H36zM37,75H38V76H37zM43,75H44V76H43zM44,75H45V76H44zM46,75H47V76H46zM50,75H51V76H50zM55,75H56V76H55zM58,75H59V76H58zM60,75H61V76H60zM61,75H62V76H61zM63,75H64V76H63zM66,75H67V76H66zM69,75H70V76H69zM70,75H71V76H70zM74,75H75V76H74zM80,75H81V76H80zM82,75H83V76H82zM83,75H84V76H83zM85,75H86V76H85zM88,75H89V76H88zM4,76H5V77H4zM5,76H6V77H5zM8,76H9V77H8zM10,76H11V77H10zM12,76H13V77H12zM14,76H15V77H14zM17,76H18V77H17zM18,76H19V77H18zM19,76H20V77H19zM21,76H22V77H21zM22,76H23V77H22zM24,76H25V77H24zM25,76H26V77H25zM26,76H27V77H26zM27,76H28V77H27zM28,76H29V77H28zM30,76H31V77H30zM32,76H33V77H32zM33,76H34V77H33zM38,76H39V77H38zM39,76H40V77H39zM40,76H41V77H40zM41,76H42V77H41zM42,76H43V77H42zM45,76H46V77H45zM51,76H52V77H51zM52,76H53V77H52zM55,76H56V77H55zM58,76H59V77H58zM60,76H61V77H60zM62,76H63V77H62zM65,76H66V77H65zM66,76H67V77H66zM67,76H68V77H67zM68,76H69V77H68zM70,76H71V77H70zM71,76H72V77H71zM72,76H73V77H72zM73,76H74V77H73zM74,76H75V77H74zM77,76H78V77H77zM79,76H80V77H79zM80,76H81V77H80zM81,76H82V77H81zM82,76H83V77H82zM84,76H85V77H84zM86,76H87V77H86zM87,76H88V77H87zM4,77H5V78H4zM6,77H7V78H6zM7,77H8V78H7zM8,77H9V78H8zM9,77H10V78H9zM13,77H14V78H13zM14,77H15V78H14zM20,77H21V78H20zM21,77H22V78H21zM24,77H25V78H24zM26,77H27V78H26zM27,77H28V78H27zM30,77H31V78H30zM31,77H32V78H31zM33,77H34V78H33zM37,77H38V78H37zM40,77H41V78H40zM44,77H45V78H44zM45,77H46V78H45zM46,77H47V78H46zM47,77H48V78H47zM48,77H49V78H48zM53,77H54V78H53zM55,77H56V78H55zM57,77H58V78H57zM58,77H59V78H58zM60,77H61V78H60zM61,77H62V78H61zM63,77H64V78H63zM64,77H65V78H64zM70,77H71V78H70zM71,77H72V78H71zM73,77H74V78H73zM78,77H79V78H78zM79,77H80V78H79zM81,77H82V78H81zM83,77H84V78H83zM85,77H86V78H85zM4,78H5V79H4zM5,78H6V79H5zM6,78H7V79H6zM8,78H9V79H8zM10,78H11V79H10zM14,78H15V79H14zM16,78H17V79H16zM17,78H18V79H17zM19,78H20V79H19zM20,78H21V79H20zM21,78H22V79H21zM27,78H28V79H27zM29,78H30V79H29zM31,78H32V79H31zM36,78H37V79H36zM37,78H38V79H37zM38,78H39V79H38zM41,78H42V79H41zM42,78H43V79H42zM43,78H44V79H43zM45,78H46V79H45zM46,78H47V79H46zM50,78H51V79H50zM51,78H52V79H51zM52,78H53V79H52zM54,78H55V79H54zM55,78H56V79H55zM56,78H57V79H56zM57,78H58V79H57zM59,78H60V79H59zM60,78H61V79H60zM62,78H63V79H62zM64,78H65V79H64zM66,78H67V79H66zM67,78H68V79H67zM68,78H69V79H68zM69,78H70V79H69zM70,78H71V79H70zM74,78H75V79H74zM77,78H78V79H77zM79,78H80V79H79zM82,78H83V79H82zM83,78H84V79H83zM84,78H85V79H84zM85,78H86V79H85zM87,78H88V79H87zM88,78H89V79H88zM5,79H6V80H5zM7,79H8V80H7zM9,79H10V80H9zM11,79H12V80H11zM12,79H13V80H12zM13,79H14V80H13zM14,79H15V80H14zM15,79H16V80H15zM16,79H17V80H16zM17,79H18V80H17zM19,79H20V80H19zM20,79H21V80H20zM22,79H23V80H22zM25,79H26V80H25zM27,79H28V80H27zM28,79H29V80H28zM29,79H30V80H29zM30,79H31V80H30zM31,79H32V80H31zM32,79H33V80H32zM33,79H34V80H33zM34,79H35V80H34zM37,79H38V80H37zM38,79H39V80H38zM40,79H41V80H40zM44,79H45V80H44zM46,79H47V80H46zM48,79H49V80H48zM49,79H50V80H49zM52,79H53V80H52zM54,79H55V80H54zM58,79H59V80H58zM60,79H61V80H60zM61,79H62V80H61zM63,79H64V80H63zM72,79H73V80H72zM75,79H76V80H75zM78,79H79V80H78zM79,79H80V80H79zM81,79H82V80H81zM82,79H83V80H82zM4,80H5V81H4zM10,80H11V81H10zM11,80H12V81H11zM13,80H14V81H13zM14,80H15V81H14zM18,80H19V81H18zM19,80H20V81H19zM21,80H22V81H21zM25,80H26V81H25zM28,80H29V81H28zM30,80H31V81H30zM31,80H32V81H31zM32,80H33V81H32zM33,80H34V81H33zM34,80H35V81H34zM35,80H36V81H35zM36,80H37V81H36zM37,80H38V81H37zM40,80H41V81H40zM41,80H42V81H41zM42,80H43V81H42zM45,80H46V81H45zM51,80H52V81H51zM52,80H53V81H52zM54,80H55V81H54zM56,80H57V81H56zM57,80H58V81H57zM58,80H59V81H58zM59,80H60V81H59zM60,80H61V81H60zM64,80H65V81H64zM65,80H66V81H65zM66,80H67V81H66zM67,80H68V81H67zM68,80H69V81H68zM69,80H70V81H69zM70,80H71V81H70zM73,80H74V81H73zM77,80H78V81H77zM79,80H80V81H79zM80,80H81V81H80zM81,80H82V81H81zM82,80H83V81H82zM83,80H84V81H83zM84,80H85V81H84zM85,80H86V81H85zM86,80H87V81H86zM88,80H89V81H88zM12,81H13V82H12zM13,81H14V82H13zM14,81H15V82H14zM17,81H18V82H17zM19,81H20V82H19zM20,81H21V82H20zM21,81H22V82H21zM23,81H24V82H23zM29,81H30V82H29zM30,81H31V82H30zM31,81H32V82H31zM32,81H33V82H32zM36,81H37V82H36zM40,81H41V82H40zM44,81H45V82H44zM46,81H47V82H46zM47,81H48V82H47zM48,81H49V82H48zM49,81H50V82H49zM50,81H51V82H50zM53,81H54V82H53zM55,81H56V82H55zM56,81H57V82H56zM60,81H61V82H60zM62,81H63V82H62zM63,81H64V82H63zM64,81H65V82H64zM65,81H66V82H65zM71,81H72V82H71zM72,81H73V82H72zM73,81H74V82H73zM75,81H76V82H75zM76,81H77V82H76zM78,81H79V82H78zM79,81H80V82H79zM80,81H81V82H80zM84,81H85V82H84zM85,81H86V82H85zM86,81H87V82H86zM87,81H88V82H87zM4,82H5V83H4zM5,82H6V83H5zM6,82H7V83H6zM7,82H8V83H7zM8,82H9V83H8zM9,82H10V83H9zM10,82H11V83H10zM13,82H14V83H13zM14,82H15V83H14zM19,82H20V83H19zM25,82H26V83H25zM26,82H27V83H26zM29,82H30V83H29zM31,82H32V83H31zM32,82H33V83H32zM34,82H35V83H34zM36,82H37V83H36zM43,82H44V83H43zM44,82H45V83H44zM45,82H46V83H45zM46,82H47V83H46zM51,82H52V83H51zM52,82H53V83H52zM54,82H55V83H54zM56,82H57V83H56zM58,82H59V83H58zM60,82H61V83H60zM61,82H62V83H61zM64,82H65V83H64zM65,82H66V83H65zM66,82H67V83H66zM67,82H68V83H67zM69,82H70V83H69zM70,82H71V83H70zM74,82H75V83H74zM76,82H77V83H76zM77,82H78V83H77zM78,82H79V83H78zM79,82H80V83H79zM80,82H81V83H80zM82,82H83V83H82zM84,82H85V83H84zM85,82H86V83H85zM86,82H87V83H86zM88,82H89V83H88zM4,83H5V84H4zM10,83H11V84H10zM12,83H13V84H12zM13,83H14V84H13zM16,83H17V84H16zM17,83H18V84H17zM19,83H20V84H19zM20,83H21V84H20zM21,83H22V84H21zM22,83H23V84H22zM23,83H24V84H23zM24,83H25V84H24zM28,83H29V84H28zM30,83H31V84H30zM31,83H32V84H31zM32,83H33V84H32zM36,83H37V84H36zM43,83H44V84H43zM44,83H45V84H44zM46,83H47V84H46zM47,83H48V84H47zM49,83H50V84H49zM50,83H51V84H50zM52,83H53V84H52zM55,83H56V84H55zM56,83H57V84H56zM60,83H61V84H60zM61,83H62V84H61zM62,83H63V84H62zM63,83H64V84H63zM65,83H66V84H65zM68,83H69V84H68zM69,83H70V84H69zM71,83H72V84H71zM73,83H74V84H73zM75,83H76V84H75zM78,83H79V84H78zM80,83H81V84H80zM84,83H85V84H84zM88,83H89V84H88zM4,84H5V85H4zM6,84H7V85H6zM7,84H8V85H7zM8,84H9V85H8zM10,84H11V85H10zM12,84H13V85H12zM13,84H14V85H13zM14,84H15V85H14zM15,84H16V85H15zM18,84H19V85H18zM19,84H20V85H19zM20,84H21V85H20zM21,84H22V85H21zM22,84H23V85H22zM25,84H26V85H25zM28,84H29V85H28zM29,84H30V85H29zM30,84H31V85H30zM31,84H32V85H31zM32,84H33V85H32zM33,84H34V85H33zM34,84H35V85H34zM35,84H36V85H35zM36,84H37V85H36zM37,84H38V85H37zM38,84H39V85H38zM39,84H40V85H39zM40,84H41V85H40zM41,84H42V85H41zM42,84H43V85H42zM47,84H48V85H47zM49,84H50V85H49zM51,84H52V85H51zM52,84H53V85H52zM53,84H54V85H53zM54,84H55V85H54zM56,84H57V85H56zM57,84H58V85H57zM58,84H59V85H58zM59,84H60V85H59zM60,84H61V85H60zM62,84H63V85H62zM64,84H65V85H64zM67,84H68V85H67zM68,84H69V85H68zM70,84H71V85H70zM72,84H73V85H72zM76,84H77V85H76zM77,84H78V85H77zM80,84H81V85H80zM81,84H82V85H81zM82,84H83V85H82zM83,84H84V85H83zM84,84H85V85H84zM85,84H86V85H85zM86,84H87V85H86zM4,85H5V86H4zM6,85H7V86H6zM7,85H8V86H7zM8,85H9V86H8zM10,85H11V86H10zM12,85H13V86H12zM14,85H15V86H14zM16,85H17V86H16zM17,85H18V86H17zM19,85H20V86H19zM20,85H21V86H20zM22,85H23V86H22zM23,85H24V86H23zM24,85H25V86H24zM25,85H26V86H25zM28,85H29V86H28zM29,85H30V86H29zM30,85H31V86H30zM33,85H34V86H33zM34,85H35V86H34zM36,85H37V86H36zM39,85H40V86H39zM42,85H43V86H42zM43,85H44V86H43zM44,85H45V86H44zM45,85H46V86H45zM46,85H47V86H46zM47,85H48V86H47zM48,85H49V86H48zM53,85H54V86H53zM55,85H56V86H55zM58,85H59V86H58zM61,85H62V86H61zM64,85H65V86H64zM66,85H67V86H66zM70,85H71V86H70zM71,85H72V86H71zM73,85H74V86H73zM74,85H75V86H74zM75,85H76V86H75zM78,85H79V86H78zM79,85H80V86H79zM80,85H81V86H80zM82,85H83V86H82zM83,85H84V86H83zM84,85H85V86H84zM86,85H87V86H86zM88,85H89V86H88zM4,86H5V87H4zM6,86H7V87H6zM7,86H8V87H7zM8,86H9V87H8zM10,86H11V87H10zM12,86H13V87H12zM14,86H15V87H14zM15,86H16V87H15zM17,86H18V87H17zM19,86H20V87H19zM22,86H23V87H22zM23,86H24V87H23zM24,86H25V87H24zM25,86H26V87H25zM27,86H28V87H27zM28,86H29V87H28zM33,86H34V87H33zM38,86H39V87H38zM39,86H40V87H39zM42,86H43V87H42zM43,86H44V87H43zM44,86H45V87H44zM49,86H50V87H49zM50,86H51V87H50zM51,86H52V87H51zM52,86H53V87H52zM53,86H54V87H53zM54,86H55V87H54zM57,86H58V87H57zM58,86H59V87H58zM59,86H60V87H59zM61,86H62V87H61zM63,86H64V87H63zM65,86H66V87H65zM66,86H67V87H66zM67,86H68V87H67zM69,86H70V87H69zM78,86H79V87H78zM81,86H82V87H81zM83,86H84V87H83zM85,86H86V87H85zM86,86H87V87H86zM88,86H89V87H88zM4,87H5V88H4zM10,87H11V88H10zM15,87H16V88H15zM18,87H19V88H18zM22,87H23V88H22zM24,87H25V88H24zM25,87H26V88H25zM26,87H27V88H26zM29,87H30V88H29zM31,87H32V88H31zM32,87H33V88H32zM33,87H34V88H33zM40,87H41V88H40zM41,87H42V88H41zM42,87H43V88H42zM43,87H44V88H43zM44,87H45V88H44zM45,87H46V88H45zM46,87H47V88H46zM48,87H49V88H48zM49,87H50V88H49zM50,87H51V88H50zM55,87H56V88H55zM56,87H57V88H56zM60,87H61V88H60zM61,87H62V88H61zM62,87H63V88H62zM63,87H64V88H63zM64,87H65V88H64zM68,87H69V88H68zM70,87H71V88H70zM71,87H72V88H71zM73,87H74V88H73zM74,87H75V88H74zM78,87H79V88H78zM79,87H80V88H79zM80,87H81V88H80zM82,87H83V88H82zM83,87H84V88H83zM84,87H85V88H84zM85,87H86V88H85zM86,87H87V88H86zM88,87H89V88H88zM4,88H5V89H4zM5,88H6V89H5zM6,88H7V89H6zM7,88H8V89H7zM8,88H9V89H8zM9,88H10V89H9zM10,88H11V89H10zM12,88H13V89H12zM13,88H14V89H13zM15,88H16V89H15zM17,88H18V89H17zM19,88H20V89H19zM21,88H22V89H21zM25,88H26V89H25zM26,88H27V89H26zM28,88H29V89H28zM30,88H31V89H30zM37,88H38V89H37zM38,88H39V89H38zM39,88H40V89H39zM42,88H43V89H42zM43,88H44V89H43zM44,88H45V89H44zM45,88H46V89H45zM47,88H48V89H47zM49,88H50V89H49zM50,88H51V89H50zM51,88H52V89H51zM52,88H53V89H52zM53,88H54V89H53zM54,88H55V89H54zM55,88H56V89H55zM56,88H57V89H56zM58,88H59V89H58zM62,88H63V89H62zM66,88H67V89H66zM67,88H68V89H67zM70,88H71V89H70zM72,88H73V89H72zM77,88H78V89H77zM82,88H83V89H82zM85,88H86V89H85zM86,88H87V89H86zM87,88H88V89H87zM88,88H89V89H88z" id="qr-path" fill="#000000" fill-opacity="1" fill-rule="nonzero" stroke="none"/></svg>